<?xml version="1.0" standalone="no"?>
<!DOCTYPE svg PUBLIC "-//W3C//DTD SVG 20010904//EN"
 "http://www.w3.org/TR/2001/REC-SVG-20010904/DTD/svg10.dtd">
<svg version="1.0" xmlns="http://www.w3.org/2000/svg"
 width="192.000000pt" height="192.000000pt" viewBox="0 0 192.000000 192.000000"
 preserveAspectRatio="xMidYMid meet">
<metadata>
Created by potrace 1.11, written by Peter Selinger 2001-2013
</metadata>
<g transform="translate(0.000000,192.000000) scale(0.100000,-0.100000)"
fill="#000000" stroke="none">
<path d="M0 960 l0 -960 960 0 960 0 0 960 0 960 -960 0 -960 0 0 -960z m670
381 c109 -42 121 -70 63 -140 l-29 -33 -61 31 c-109 54 -187 51 -219 -10 -32
-63 13 -114 160 -183 151 -70 215 -145 216 -249 0 -87 -47 -159 -134 -205 -44
-23 -63 -26 -141 -26 -102 0 -176 23 -235 73 l-35 29 25 47 c14 26 31 49 38
52 7 3 43 -11 80 -30 95 -50 163 -53 206 -11 19 19 26 37 26 63 0 53 -44 93
-166 151 -141 68 -204 144 -204 246 0 87 58 170 143 203 68 27 187 24 267 -8z
m656 -16 c64 -40 103 -96 110 -160 5 -42 1 -59 -23 -105 -18 -35 -42 -64 -66
-80 l-38 -24 34 -17 c49 -25 105 -92 113 -134 19 -105 -24 -190 -121 -240
l-59 -30 -185 0 -186 0 -3 400 c-1 220 0 406 3 413 4 11 43 13 188 10 l184 -3
49 -30z"/>
<path d="M1050 1114 l0 -106 86 3 c79 4 88 6 110 32 44 51 44 108 -1 153 -22
22 -33 24 -110 24 l-85 0 0 -106z"/>
<path d="M1050 774 l0 -106 96 4 c94 3 96 4 125 36 42 46 40 93 -5 138 -34 34
-35 34 -125 34 l-91 0 0 -106z"/>
</g>
</svg>
